<svg xmlns="http://www.w3.org/2000/svg" viewBox="0 0 100 100"><defs><style>.cls-1{fill:#0099f5;}.cls-2,.cls-5{fill:#ffd44d;}.cls-3{fill:#ff9515;}.cls-4{fill:none;}.cls-4,.cls-5{stroke:#231f20;stroke-miterlimit:10;stroke-width:1.5px;}</style></defs><g id="Layer_2" data-name="Layer 2"><path class="cls-1" d="M23.78,27.68H76.22a4.88,4.88,0,0,1,4.88,4.88v33a0,0,0,0,1,0,0H18.89a0,0,0,0,1,0,0v-33A4.88,4.88,0,0,1,23.78,27.68Z"/><polygon class="cls-2" points="8.7 75.67 91.3 75.67 81.11 65.59 18.89 65.59 8.7 75.67"/><path class="cls-3" d="M8.7,75.67h0a4.8,4.8,0,0,0,4.8,4.8h73a4.8,4.8,0,0,0,4.8-4.8H8.7Z"/><path class="cls-4" d="M56.34,27.68H76.07a5,5,0,0,1,5,5V65.59H18.89V32.72a5,5,0,0,1,5-5H43.19"/><line class="cls-4" x1="8.7" y1="75.67" x2="91.3" y2="75.67"/><polyline class="cls-4" points="91.3 75.67 81.11 65.59 18.89 65.59 8.7 75.67"/><path class="cls-4" d="M8.7,75.67h0a4.8,4.8,0,0,0,4.8,4.8h73a4.8,4.8,0,0,0,4.8-4.8H8.7Z"/><path class="cls-5" d="M34.26,41.65,27.37,52.41a2.93,2.93,0,0,0,2.47,4.5H70.16a2.93,2.93,0,0,0,2.47-4.5L52.46,20.88a2.92,2.92,0,0,0-4.92,0L38,35.87"/><line class="cls-4" x1="50" y1="48.86" x2="50" y2="51.09"/><line class="cls-4" x1="50" y1="28.49" x2="50" y2="46.64"/></g></svg>